<?xml version="1.0" standalone="no"?>
<!DOCTYPE svg PUBLIC "-//W3C//DTD SVG 20010904//EN"
 "http://www.w3.org/TR/2001/REC-SVG-20010904/DTD/svg10.dtd">
<svg version="1.0" xmlns="http://www.w3.org/2000/svg"
 width="185.000000pt" height="190.000000pt" viewBox="0 0 185.000000 190.000000"
 preserveAspectRatio="xMidYMid meet">

<g transform="translate(0.000000,190.000000) scale(0.100000,-0.100000)"
fill="#000000" stroke="none">
<path d="M825 1780 c-271 -28 -505 -181 -636 -417 -74 -133 -101 -245 -100
-407 3 -308 178 -585 455 -719 126 -62 195 -78 334 -80 176 -3 255 14 395 84
315 156 493 507 437 858 -68 417 -467 724 -885 681z m264 -76 c141 -35 239
-92 346 -199 102 -102 154 -183 191 -299 134 -423 -102 -855 -533 -978 -111
-31 -277 -31 -388 1 -139 40 -228 93 -336 201 -83 82 -103 108 -142 190 -65
134 -81 201 -81 345 -1 143 15 210 78 340 77 157 194 270 361 351 159 76 330
92 504 48z"/>
<path d="M473 1397 c-4 -6 -6 -39 -5 -74 0 -35 1 -227 1 -428 l1 -366 63 3 62
3 0 70 0 70 307 3 307 2 3 -72 3 -73 60 0 60 0 0 430 0 430 -60 0 -60 0 -1
-100 c-1 -55 -2 -119 -3 -142 l-1 -43 -130 0 -130 0 -1 33 c0 17 0 64 1 102 2
105 -4 110 -139 112 -150 3 -153 0 -152 -127 0 -52 -3 -101 -8 -108 -4 -8 -19
-12 -32 -10 -24 3 -24 3 -24 140 0 75 -4 140 -8 145 -12 12 -107 12 -114 0z
m75 -430 c2 -392 2 -397 -18 -397 -20 0 -20 6 -20 393 0 217 3 397 7 401 25
24 28 -18 31 -397z m752 -4 l0 -394 -22 3 -23 3 -2 389 c-3 397 -1 412 34 399
10 -4 13 -79 13 -400z m-536 351 c10 -4 16 -18 16 -35 0 -40 37 -42 42 -1 3
23 8 27 41 30 l37 3 0 -100 0 -101 -100 0 -100 0 0 99 c0 99 3 108 37 110 6 1
18 -2 27 -5z m444 -409 c1 -87 1 -164 -2 -170 -2 -7 -19 -9 -40 -7 l-36 4 0
107 c0 70 -4 111 -12 119 -8 8 -53 12 -135 12 -147 0 -143 4 -143 -139 l0
-101 -122 0 -123 0 2 157 c2 87 3 161 3 165 0 6 414 15 575 13 l30 0 3 -160z
m-238 -5 c0 -23 4 -30 20 -30 16 0 20 7 20 30 0 28 2 30 40 30 l40 0 0 -100 0
-100 -100 0 -100 0 0 100 0 100 40 0 c38 0 40 -2 40 -30z"/>
</g>
</svg>
